<svg width="150" height="150" viewBox="0 0 150 150" fill="none" xmlns="http://www.w3.org/2000/svg">
<rect width="150" height="150" rx="22" fill="#07030B"/>
<path d="M116 53.6667C116 57.1176 114.949 60.3072 112.848 63.2353H87.0039C87.8444 62.6078 88.2646 61.5621 88.2646 60.098C88.2646 58.634 87.4241 57.4837 85.7432 56.6471C84.0623 55.7059 81.9086 55.2353 79.2821 55.2353C71.4027 55.2353 67.463 57.6405 67.463 62.451C67.463 64.3333 68.9339 65.6928 71.8755 66.5294C74.8171 67.366 78.3891 68.0458 82.5914 68.5686C86.7938 69.0915 90.9961 69.8758 95.1984 70.9216C99.4008 71.8627 102.973 73.7974 105.914 76.7255C108.856 79.6536 110.327 83.5752 110.327 88.4902C110.327 97.1699 106.807 103.758 99.7685 108.255C92.8346 112.752 82.6965 115 69.3541 115C56.0117 115 46.6615 112.856 41.3035 108.569C37.1012 105.222 35 100.621 35 94.7647C35 93.0915 35.1576 91.366 35.4728 89.5882L61.7899 89.2745C61.5798 90.7386 62.4202 92.0457 64.3113 93.1961C66.3074 94.2418 69.1965 94.7647 72.9786 94.7647C76.7607 94.7647 79.4922 94.3987 81.1732 93.6667C82.8541 92.8301 83.6946 91.3137 83.6946 89.1176C83.6946 87.6536 82.2237 86.6601 79.2821 86.1373C76.3405 85.5098 72.716 84.9869 68.4086 84.5686C64.2062 84.1503 59.9514 83.4706 55.644 82.5294C51.4416 81.5882 47.8697 79.6013 44.928 76.5686C41.9864 73.5359 40.5156 69.5621 40.5156 64.6471C40.5156 55.1307 44.1926 47.8105 51.5467 42.6863C59.0058 37.5621 69.7218 35 83.6946 35C105.232 35 116 41.2222 116 53.6667Z" fill="url(#paint0_linear_193_65)"/>
<defs>
<linearGradient id="paint0_linear_193_65" x1="123.924" y1="88.0311" x2="35.7204" y2="87.9093" gradientUnits="userSpaceOnUse">
<stop stop-color="white"/>
<stop offset="1" stop-color="white" stop-opacity="0.35"/>
</linearGradient>
</defs>
</svg>
