<svg width="471" height="121" viewBox="0 0 471 121" fill="none" xmlns="http://www.w3.org/2000/svg">
<path d="M79.5516 60.4225C79.5516 63.831 78.5198 66.9812 76.4562 69.8732H51.074C51.8994 69.2535 52.3121 68.2207 52.3121 66.7746C52.3121 65.3286 51.4867 64.1925 49.8358 63.3662C48.1849 62.4366 46.0697 61.9718 43.4902 61.9718C35.7518 61.9718 31.8825 64.3474 31.8825 69.0986C31.8825 70.9577 33.327 72.3005 36.2161 73.1268C39.1051 73.9531 42.6132 74.6244 46.7404 75.1408C50.8676 75.6573 54.9948 76.4319 59.122 77.4648C63.2492 78.3944 66.7573 80.3052 69.6463 83.1972C72.5353 86.0892 73.9798 89.9624 73.9798 94.8169C73.9798 103.39 70.5233 109.897 63.6103 114.338C56.8004 118.779 46.8436 121 33.7398 121C20.6359 121 11.4529 118.883 6.19078 114.648C2.06359 111.343 0 106.798 0 101.014C0 99.3615 0.15477 97.6573 0.464309 95.9014L26.3108 95.5915C26.1045 97.0376 26.9299 98.3286 28.7871 99.4648C30.7476 100.498 33.585 101.014 37.2995 101.014C41.0139 101.014 43.6966 100.653 45.3475 99.9296C46.9984 99.1033 47.8238 97.6056 47.8238 95.4366C47.8238 93.9906 46.3793 93.0094 43.4902 92.493C40.6012 91.8732 37.0415 91.3568 32.8111 90.9437C28.684 90.5305 24.5052 89.8592 20.2748 88.9296C16.1476 88 12.6395 86.0376 9.75048 83.0423C6.86145 80.0469 5.41693 76.1221 5.41693 71.2676C5.41693 61.8685 9.02822 54.6385 16.2508 49.5775C23.5766 44.5164 34.1009 41.9859 47.8238 41.9859C68.9756 41.9859 79.5516 48.1315 79.5516 60.4225Z" fill="url(#paint0_linear_192_61)"/>
<path d="M120.229 121C108.26 121 99.645 118.315 94.3828 112.944C90.462 109.019 88.5016 103.751 88.5016 97.1408C88.5016 94.9718 88.7079 92.6479 89.1207 90.169L99.645 30.2113L127.968 18.4366L123.479 44.3099H166.196L162.327 66.1549H119.61L116.515 83.662C116.102 85.6244 115.896 87.3803 115.896 88.9296C115.896 95.4366 118.991 98.6901 125.182 98.6901C128.484 98.6901 131.218 97.2958 133.385 94.507C135.655 91.7183 137.202 88 138.028 83.3521H163.72C159.386 108.451 144.889 121 120.229 121Z" fill="url(#paint1_linear_192_61)"/>
<path d="M218.327 42.1408C229.47 42.1408 237.879 44.5681 243.554 49.4225C247.991 53.2441 250.209 58.5634 250.209 65.3803C250.209 67.6526 249.951 70.1315 249.435 72.8169L246.185 90.9437C244.225 101.892 239.633 109.638 232.411 114.183C225.291 118.728 215.747 121 203.778 121C191.809 121 183.039 118.728 177.467 114.183C173.34 110.775 171.277 105.662 171.277 98.8451C171.277 96.4695 171.535 93.8357 172.051 90.9437L175.301 72.8169C178.912 52.3662 193.254 42.1408 218.327 42.1408ZM222.505 75.9155C222.712 74.8826 222.815 73.5915 222.815 72.0423C222.815 70.3897 222.144 68.5822 220.803 66.6197C219.462 64.6573 217.088 63.6761 213.684 63.6761C210.382 63.6761 207.596 64.8122 205.326 67.0845C203.056 69.2535 201.612 72.1972 200.992 75.9155L198.98 87.5352C198.774 88.5681 198.671 89.9108 198.671 91.5634C198.671 93.1127 199.342 94.8169 200.683 96.6761C202.024 98.5352 204.346 99.4648 207.648 99.4648C211.052 99.4648 213.89 98.3286 216.16 96.0563C218.43 93.6808 219.874 90.8404 220.493 87.5352L222.505 75.9155Z" fill="url(#paint2_linear_192_61)"/>
<path d="M305.687 42.1408C316.83 42.1408 325.239 44.5681 330.914 49.4225C335.351 53.2441 337.569 58.5634 337.569 65.3803C337.569 67.6526 337.311 70.1315 336.795 72.8169L333.545 90.9437C331.585 101.892 326.993 109.638 319.771 114.183C312.651 118.728 303.107 121 291.138 121C279.17 121 270.399 118.728 264.828 114.183C260.7 110.775 258.637 105.662 258.637 98.8451C258.637 96.4695 258.895 93.8357 259.411 90.9437L262.661 72.8169C266.272 52.3662 280.614 42.1408 305.687 42.1408ZM309.866 75.9155C310.072 74.8826 310.175 73.5915 310.175 72.0423C310.175 70.3897 309.504 68.5822 308.163 66.6197C306.822 64.6573 304.449 63.6761 301.044 63.6761C297.742 63.6761 294.956 64.8122 292.686 67.0845C290.416 69.2535 288.972 72.1972 288.353 75.9155L286.341 87.5352C286.134 88.5681 286.031 89.9108 286.031 91.5634C286.031 93.1127 286.702 94.8169 288.043 96.6761C289.384 98.5352 291.706 99.4648 295.008 99.4648C298.413 99.4648 301.25 98.3286 303.52 96.0563C305.79 93.6808 307.234 90.8404 307.854 87.5352L309.866 75.9155Z" fill="url(#paint3_linear_192_61)"/>
<path d="M421.834 60.1127C421.834 63.6244 421.215 67.0329 419.977 70.338C418.842 73.6432 417.707 76.0704 416.572 77.6197L414.869 79.7887H391.499C394.079 77.4131 395.368 74.4695 395.368 70.9577C395.368 69.0986 394.749 67.6009 393.511 66.4648C392.376 65.2253 390.777 64.6056 388.713 64.6056C385.205 64.6056 382.161 66.3615 379.582 69.8732L370.915 118.831H344.604L357.759 44.3099H382.213L380.356 54.6901C386.237 46.3239 393.356 42.1408 401.714 42.1408C408.421 42.1408 413.425 43.7418 416.727 46.9437C420.132 50.1455 421.834 54.5352 421.834 60.1127Z" fill="url(#paint4_linear_192_61)"/>
<path d="M458.928 99C461.301 99 463.416 98.4836 465.274 97.4507L464.5 114.958C459.65 118.986 454.13 121 447.939 121C438.55 121 432.462 118.831 429.677 114.493C427.819 111.601 426.891 108.554 426.891 105.352C426.891 102.047 427.097 99.1549 427.51 96.6761L436.796 44.3099H463.107L454.44 93.1127C454.336 93.7324 454.285 94.3005 454.285 94.8169C454.285 97.6056 455.833 99 458.928 99ZM439.891 19.0563C439.891 12.446 441.336 7.64319 444.225 4.64788C447.217 1.54929 451.809 0 457.999 0C466.666 0 471 3.8216 471 11.4648C471 17.9718 469.504 22.723 466.512 25.7183C463.623 28.7136 459.031 30.2113 452.737 30.2113C444.173 30.2113 439.891 26.493 439.891 19.0563Z" fill="url(#paint5_linear_192_61)"/>
<defs>
<linearGradient id="paint0_linear_192_61" x1="492.09" y1="93.6554" x2="9.62589" y2="89.9817" gradientUnits="userSpaceOnUse">
<stop stop-color="white"/>
<stop offset="1" stop-color="white" stop-opacity="0.35"/>
</linearGradient>
<linearGradient id="paint1_linear_192_61" x1="492.09" y1="93.6554" x2="9.62589" y2="89.9817" gradientUnits="userSpaceOnUse">
<stop stop-color="white"/>
<stop offset="1" stop-color="white" stop-opacity="0.35"/>
</linearGradient>
<linearGradient id="paint2_linear_192_61" x1="492.09" y1="93.6554" x2="9.62589" y2="89.9817" gradientUnits="userSpaceOnUse">
<stop stop-color="white"/>
<stop offset="1" stop-color="white" stop-opacity="0.35"/>
</linearGradient>
<linearGradient id="paint3_linear_192_61" x1="492.09" y1="93.6554" x2="9.62589" y2="89.9817" gradientUnits="userSpaceOnUse">
<stop stop-color="white"/>
<stop offset="1" stop-color="white" stop-opacity="0.35"/>
</linearGradient>
<linearGradient id="paint4_linear_192_61" x1="492.09" y1="93.6554" x2="9.62589" y2="89.9817" gradientUnits="userSpaceOnUse">
<stop stop-color="white"/>
<stop offset="1" stop-color="white" stop-opacity="0.35"/>
</linearGradient>
<linearGradient id="paint5_linear_192_61" x1="492.09" y1="93.6554" x2="9.62589" y2="89.9817" gradientUnits="userSpaceOnUse">
<stop stop-color="white"/>
<stop offset="1" stop-color="white" stop-opacity="0.35"/>
</linearGradient>
</defs>
</svg>
